# xmcd
#
# Track frame offsets: 
#        150
#        15022
#        32978
#        46537
#        62667
#        76291
#        93002
#        105836
#        120866
#        137327
#
# Disc length: 2068 seconds
#
# Revision: 0
# Processed by: cddbd v1.5.2PL0 Copyright (c) Steve Scherf et al.
# Submitted via: ExactAudioCopy v1.3
#
DISCID=5908120a
DTITLE=Shelley King - Kick Up Your Heels
DYEAR=2019
DGENRE=Texas Blues
TTITLE0=Levon's New Drum Set
TTITLE1=Stormin' In The South
TTITLE2=Hurricane Party
TTITLE3=Blues So Bad
TTITLE4=One Shot At A Time
TTITLE5=Kick Up Your Heels
TTITLE6=Soulville
TTITLE7=Heart Of A Girl
TTITLE8=Crush
TTITLE9=How Eagles Fly
EXTD=
EXTT0=
EXTT1=
EXTT2=
EXTT3=
EXTT4=
EXTT5=
EXTT6=
EXTT7=
EXTT8=
EXTT9=
PLAYORDER=
